<svg width="250.000000" height="179.000000" viewBox="0 0 250 179" fill="none" xmlns="http://www.w3.org/2000/svg" xmlns:xlink="http://www.w3.org/1999/xlink">
	<desc>
			Created with Pixso.
	</desc>
	<defs>
		<filter id="filter_70_48_dd" x="0.000000" y="0.000000" width="250.000000" height="179.000000" filterUnits="userSpaceOnUse" color-interpolation-filters="sRGB">
			<feFlood flood-opacity="0" result="BackgroundImageFix"/>
			<feBlend mode="normal" in="SourceGraphic" in2="BackgroundImageFix" result="shape"/>
			<feColorMatrix in="SourceAlpha" type="matrix" values="0 0 0 0 0 0 0 0 0 0 0 0 0 0 0 0 0 0 127 0" result="hardAlpha"/>
			<feOffset dx="0" dy="4"/>
			<feGaussianBlur stdDeviation="1.33333"/>
			<feComposite in2="hardAlpha" operator="arithmetic" k2="-1" k3="1"/>
			<feColorMatrix type="matrix" values="0 0 0 0 0 0 0 0 0 0 0 0 0 0 0 0 0 0 1 0"/>
			<feBlend mode="normal" in2="shape" result="effect_innerShadow_1"/>
		</filter>
	</defs>
	<g filter="url(#filter_70_48_dd)">
		<path id="Vector 1" d="M108.74 126.21L108.74 166.72C107.67 169.89 103.38 176.79 94.85 179C87.09 179 64.47 179 54.13 179C33.45 175.41 -6.17 156.1 0.81 107.49C2.96 97.05 12.64 74.28 34.09 66.67C40.02 45.29 65.57 2.04 120.38 0.07C188.89 -2.38 212.8 55.01 215.06 66.67C229.07 71.99 255.46 92.45 248.99 131.73C246.41 144.32 232.51 171.38 197.61 179L152.37 179C149.57 177.97 143.26 174.09 140.41 166.72L140.41 126.21C142.57 128.56 147.98 133.45 152.37 134.19C156.76 134.92 161.31 133.88 163.03 133.27C164.76 132.35 168.72 129.64 170.79 126.21C172.86 122.77 171.65 115.16 170.79 111.78L132.98 76.18C130.07 74.14 122.7 71.27 116.5 76.18C110.3 81.09 88.92 101.96 79.01 111.78C77.61 113.42 75.52 118.35 78.37 124.98C81.92 133.27 91.94 135.11 94.85 134.19C97.65 134.09 104.35 132.35 108.74 126.21Z" fill="#7A818E" fill-opacity="1.000000" fill-rule="evenodd"/>
	</g>
</svg>
